<svg aria-hidden="true" style="position: absolute; width: 0; height: 0; overflow: hidden;" version="1.1"
    xmlns="http://www.w3.org/2000/svg" xmlns:xlink="http://www.w3.org/1999/xlink">
    <defs>
        <symbol id="icon-check" viewBox="0 0 42 32">
            <path fill="currentColor"
                d="M6.268 15.219l-0.221-0.211-0.221 0.208-3.088 2.928 0.243 0.234 11.419 10.891 0.221-0.211 24.28-23.162-0.243-0.231-3.046-2.905-0.221 0.211-20.99 20.007-8.133-7.758z">
            </path>
        </symbol>
        <symbol id="icon-icon-send" viewBox="0 0 32 32">
            <path fill="currentColor"
                d="M32.005 0l-32.005 18.003 10.228 3.787 15.776-14.789-11.999 16.189 0.009 0.003-0.012-0.003v8.815l5.735-6.692 7.268 2.691 4.999-28.004z">
            </path>
        </symbol>
        <symbol id="icon-email-black" viewBox="0 0 32 32">
            <path fill="currentColor"
                d="M26.681 5.336h-21.345c-1.467 0-2.654 1.201-2.654 2.668l-0.014 16.009c0 1.467 1.201 2.668 2.668 2.668h21.345c1.467 0 2.668-1.201 2.668-2.668v-16.009c0-1.467-1.201-2.668-2.668-2.668zM26.148 11.007l-9.431 5.895c-0.201 0.126-0.446 0.201-0.708 0.201s-0.507-0.075-0.714-0.204l0.006 0.003-9.431-5.895c-0.336-0.201-0.557-0.562-0.557-0.976 0-0.626 0.507-1.133 1.133-1.133 0.233 0 0.449 0.070 0.629 0.19l-0.004-0.003 8.938 5.589 8.938-5.591c0.176-0.118 0.392-0.188 0.625-0.188 0.626 0 1.133 0.507 1.133 1.133 0 0.413-0.221 0.775-0.552 0.973l-0.005 0.003z">
            </path>
        </symbol>
        <symbol id="icon-person-black" viewBox="0 0 32 32">
            <path fill="currentColor"
                d="M16.009 16.009c2.947 0 5.336-2.389 5.336-5.336s-2.389-5.336-5.336-5.336v0c-2.947 0-5.336 2.389-5.336 5.336s2.389 5.336 5.336 5.336v0zM16.009 18.677c-3.563 0-10.672 1.788-10.672 5.336v1.334c0 0.733 0.599 1.334 1.334 1.334h18.677c0.733 0 1.334-0.601 1.334-1.334v-1.334c0-3.549-7.111-5.336-10.672-5.336z">
            </path>
        </symbol>
        <symbol id="icon-phone-black" viewBox="0 0 32 32">
            <path fill="currentColor"
                d="M24.895 19.785l-3.269-0.374c-0.090-0.011-0.194-0.018-0.299-0.018-0.708 0-1.348 0.287-1.812 0.75l-2.369 2.369c-3.671-1.895-6.589-4.813-8.432-8.377l-0.051-0.108 2.383-2.378c0.464-0.464 0.75-1.104 0.75-1.811 0-0.106-0.006-0.21-0.019-0.312l0.001 0.012-0.374-3.244c-0.155-1.288-1.241-2.277-2.558-2.277-0.001 0-0.002 0-0.003 0h-2.227c-1.455 0-2.665 1.21-2.576 2.665 0.683 10.993 9.475 19.771 20.456 20.454 1.453 0.089 2.665-1.121 2.665-2.576v-2.227c0-0.004 0-0.008 0-0.012 0-1.308-0.985-2.387-2.254-2.534l-0.012-0.001z">
            </path>
        </symbol>
        <symbol id="icon-antenna" viewBox="0 0 32 32">
            <path fill="#212121" style="fill: var(--color1, #212121)"
                d="M30.774 22.099l-8.444-8.505 0.937-4.616c0.225 0.090 0.485 0.144 0.758 0.146h0.007c0.008 0 0.017 0 0.026 0 1.192 0 2.159-0.967 2.159-2.159s-0.967-2.159-2.159-2.159c-1.192 0-2.159 0.967-2.159 2.159 0 0.259 0.046 0.508 0.13 0.739l-0.005-0.015-4.96 0.606-8.091-8.133c-0.096-0.098-0.229-0.159-0.376-0.16h-0c-0.14 0.001-0.274 0.057-0.373 0.155l-1.512 1.504c-0.096 0.097-0.156 0.23-0.156 0.377s0.060 0.281 0.156 0.377v0l0.814 0.825c-1.143 2.062-1.816 4.522-1.816 7.139 0 4.106 1.656 7.825 4.336 10.525l-0.001-0.001c0.043 0.041 0.092 0.074 0.146 0.097-0.032 0.164-0.051 0.353-0.052 0.546v6.188h-6.4c-1.472 0.001-2.666 1.194-2.668 2.666v1.067c0 0.295 0.239 0.533 0.534 0.533h24.535c0.294 0 0.533-0.239 0.533-0.534v-1.067c-0.002-1.472-1.195-2.665-2.666-2.667h-6.4v-2.742c1.003 0.21 2.024 0.317 3.049 0.32 2.58-0.003 5.005-0.663 7.117-1.822l-0.077 0.039 0.818 0.823c0.099 0.101 0.235 0.159 0.376 0.16 0.14-0.001 0.274-0.057 0.373-0.155l1.512-1.504c0.096-0.097 0.156-0.23 0.156-0.377s-0.060-0.281-0.156-0.377v0zM23.281 6.233c0.193-0.192 0.459-0.31 0.752-0.31 0.589 0 1.067 0.478 1.067 1.067s-0.477 1.067-1.067 1.067c-0 0-0 0-0 0h-0.004c-0.587-0.003-1.061-0.479-1.061-1.067 0-0.295 0.12-0.563 0.314-0.756l0-0h-0.002zM22.025 9.738l-0.598 2.946-1.175-1.183 1.774-1.763zM21.419 8.836l-1.92 1.909-1.486-1.494 3.406-0.416zM24.005 28.801c0.884 0 1.6 0.716 1.6 1.6v0 0.534h-23.467v-0.534c0-0.884 0.716-1.6 1.6-1.6v0h20.267zM16.538 26.668v1.067h-5.334v-1.067h5.334zM11.205 25.601v-4.054c0-1.294 1.196-2.347 2.667-2.347s2.667 1.053 2.667 2.347v4.054h-5.334zM17.605 23.905v-2.358c0-1.882-1.675-3.413-3.734-3.413-0.017-0-0.038-0-0.058-0-1.353 0-2.54 0.707-3.213 1.771l-0.009 0.016c-2.36-2.482-3.812-5.847-3.812-9.55 0-2.314 0.567-4.496 1.569-6.414l-0.036 0.077 18.603 18.709c-1.823 0.947-3.98 1.502-6.266 1.502-1.079 0-2.129-0.124-3.136-0.357l0.093 0.018zM28.894 23.221l-21.058-21.182 0.754-0.752 7.935 7.98c0.004 0 0.006 0.007 0.010 0.010l13.115 13.192-0.757 0.752z">
            </path>
            <path fill="#2196f3" style="fill: var(--color2, #2196f3)"
                d="M13.876 20.267h-0.005c-0.001 0-0.002 0-0.002 0-0.884 0-1.6 0.716-1.6 1.6s0.715 1.599 1.597 1.6h0.005c0.001 0 0.001 0 0.002 0 0.884 0 1.6-0.716 1.6-1.6s-0.715-1.599-1.598-1.6h-0zM14.249 22.246c-0.096 0.096-0.229 0.155-0.376 0.155-0.295 0-0.534-0.239-0.534-0.534s0.238-0.533 0.532-0.534h0c0.293 0.001 0.531 0.239 0.531 0.533 0 0.148-0.060 0.282-0.157 0.378l-0 0h0.005z">
            </path>
        </symbol>
        <symbol id="icon-astronaut" viewBox="0 0 32 32">
            <path fill="#2196f3" style="fill: var(--color2, #2196f3)"
                d="M31.975 4.524c-0.064-0.191-0.227-0.332-0.427-0.362l-0.003-0-1.911-0.278-0.855-1.731c-0.179-0.365-0.777-0.365-0.956 0l-0.855 1.731-1.911 0.278c-0.26 0.039-0.457 0.26-0.457 0.528 0 0.15 0.062 0.285 0.161 0.382l1.383 1.348-0.326 1.903c-0.034 0.2 0.048 0.402 0.212 0.522 0.166 0.12 0.383 0.135 0.562 0.040l1.709-0.899 1.709 0.899c0.072 0.038 0.157 0.061 0.247 0.061 0.295 0 0.534-0.239 0.534-0.534 0-0.031-0.003-0.062-0.008-0.092l0 0.003-0.326-1.903 1.383-1.348c0.099-0.097 0.161-0.233 0.161-0.382 0-0.059-0.009-0.115-0.027-0.168l0.001 0.004zM29.513 5.852c-0.126 0.122-0.183 0.299-0.153 0.472l0.191 1.114-1-0.526c-0.072-0.039-0.158-0.062-0.249-0.062s-0.177 0.023-0.252 0.063l0.003-0.001-1 0.526 0.191-1.114c0.005-0.027 0.008-0.059 0.008-0.091 0-0.149-0.061-0.285-0.16-0.381l-0-0-0.811-0.79 1.119-0.162c0.174-0.025 0.324-0.134 0.402-0.292l0.5-1.013 0.5 1.013c0.078 0.158 0.228 0.267 0.402 0.292l1.119 0.162-0.809 0.79zM26.135 20.523h-1.067v1.067h1.067v-1.067zM26.135 22.657h-1.067v1.066h1.067v-1.066zM27.201 21.59h-1.067v1.067h1.067v-1.067zM25.068 21.59h-1.067v1.067h1.067v-1.067zM22.401 26.39h-1.067v1.067h1.067v-1.067zM22.401 28.524h-1.067v1.067h1.067v-1.067zM23.468 27.457h-1.067v1.067h1.067v-1.067zM21.334 27.457h-1.067v1.067h1.067v-1.067zM16.001 24.257h-1.067v1.067h1.067v-1.067zM16.001 26.39h-1.067v1.067h1.067v-1.067zM17.067 25.323h-1.067v1.067h1.067v-1.067zM14.934 25.323h-1.067v1.067h1.067v-1.067zM5.867 6.122h-1.067v1.067h1.067v-1.067zM5.867 8.256h-1.067v1.067h1.067v-1.066zM6.933 7.189h-1.067v1.067h1.067v-1.067zM4.8 7.189h-1.067v1.067h1.067v-1.067z">
            </path>
            <path fill="#212121" style="fill: var(--color1, #212121)"
                d="M24.716 14.16c-0.28-0.376-0.698-0.636-1.179-0.703l-0.009-0.001c-0.076-0.012-0.164-0.018-0.254-0.018-0.411 0-0.789 0.139-1.090 0.373l0.004-0.003-1.253 0.96-1.898 1.417-1.358-0.541c2.421-1.086 4.114-3.508 4.114-6.32 0-3.823-3.122-6.934-6.961-6.934s-6.962 3.111-6.962 6.934c0 1.386 0.415 2.674 1.12 3.759l-2.769-0.024c-0.009 0-0.016 0.005-0.023 0.005-0.057 0.003-0.11 0.014-0.159 0.033l0.004-0.001c-0.013 0.005-0.026 0.007-0.038 0.013-0.006 0.003-0.013 0.003-0.019 0.006l-3.233 1.596c-0 0-0.001 0-0.001 0.001l-1.893 0.91c-0.024 0.011-0.045 0.023-0.065 0.036l0.001-0.001c-0.482 0.324-0.795 0.867-0.795 1.483 0 0.297 0.073 0.577 0.201 0.823l-0.005-0.010c0.22 0.424 0.592 0.742 1.043 0.885l0.013 0.003c0.161 0.053 0.345 0.083 0.537 0.083 0.308 0 0.598-0.078 0.851-0.216l-0.009 0.005 1.388-0.738 2.264-1.169 1.357-0.008-5.442 5.416c0 0.001-0.001 0.001-0.001 0.001l-1.339 1.333c-0.303 0.299-0.49 0.714-0.49 1.173 0 0.002 0 0.004 0 0.005v-0c0 0.444 0.174 0.863 0.49 1.179 0.301 0.3 0.717 0.485 1.176 0.485 0.001 0 0.002 0 0.004 0h-0c0.428 0 0.854-0.162 1.18-0.485l1.314-1.309 1.741-1.3 0.901 0.897-3.102 3.089c-0.303 0.299-0.491 0.714-0.491 1.174 0 0.001 0 0.003 0 0.004v-0c0 0.445 0.174 0.864 0.491 1.179 0.302 0.3 0.717 0.485 1.176 0.485 0.001 0 0.002 0 0.003 0h-0c0.427 0 0.855-0.162 1.18-0.485l4.488-4.472c0.007-0.006 0.016-0.009 0.022-0.016l5.166-5.658 3.471 0.494c0.025 0.004 0.050 0.006 0.075 0.006 0.065 0 0.127-0.016 0.187-0.038 0.018-0.006 0.033-0.015 0.050-0.023 0.019-0.010 0.039-0.015 0.058-0.027l3.213-2.133c0.012-0.008 0.018-0.021 0.029-0.030 0.013-0.010 0.029-0.014 0.041-0.026l1.271-1.191c0.348-0.326 0.564-0.787 0.564-1.3 0-0.4-0.132-0.769-0.355-1.067l0.003 0.005zM2.13 17.771c-0.098 0.054-0.215 0.086-0.34 0.086-0.078 0-0.153-0.013-0.224-0.036l0.005 0.001c-0.294-0.093-0.504-0.364-0.504-0.683 0-0.235 0.114-0.444 0.289-0.575l0.002-0.001 1.314-0.632 0.316 0.924 0.133 0.389-0.992 0.527zM5.628 15.943l-1.548 0.8-0.255-0.747-0.184-0.537 2.027-1.001-0.040 1.484zM20.728 9.322c0 0.918-0.219 1.785-0.599 2.56l-4.182-1.899c-0.044-0.575-0.342-1.072-0.782-1.384l-0.006-0.004 1.463-4.861c2.378 0.757 4.105 2.975 4.105 5.588zM8.938 9.322c0-3.235 2.644-5.867 5.895-5.867 0.253 0 0.5 0.022 0.745 0.053l-1.432 4.753c-0.019 0-0.037-0.006-0.057-0.006-0 0-0.001 0-0.001 0-1.032 0-1.869 0.835-1.872 1.867v0c0.003 1.031 0.84 1.867 1.872 1.867 0 0 0.001 0 0.001 0h-0c0.695 0 1.295-0.383 1.618-0.944l3.863 1.755c-1.075 1.447-2.795 2.39-4.737 2.39-3.25 0-5.895-2.632-5.895-5.867zM14.895 10.122c0 0.441-0.362 0.8-0.806 0.8-0 0-0.001 0-0.001 0-0.443 0-0.802-0.358-0.804-0.8v-0c0-0.441 0.361-0.8 0.806-0.8s0.806 0.359 0.806 0.8zM2.465 25.147c-0.11 0.109-0.261 0.176-0.428 0.176s-0.317-0.067-0.427-0.175l0 0c-0.109-0.108-0.176-0.257-0.176-0.422s0.067-0.314 0.176-0.422l0-0 0.962-0.959 0.852 0.848-0.959 0.955zM5.678 28.881c-0.11 0.109-0.261 0.176-0.428 0.176s-0.317-0.067-0.427-0.175l0 0c-0.109-0.108-0.176-0.257-0.176-0.422s0.067-0.314 0.176-0.422l0-0 0.963-0.959 0.852 0.848-0.96 0.955zM9.16 25.412l-0.001 0.001-1.765 1.76-0.852-0.848 1.765-1.757c0.040-0.040 0.065-0.088 0.090-0.136 0.007-0.014 0.020-0.026 0.026-0.040 0.016-0.041 0.019-0.085 0.026-0.128 0.003-0.025 0.014-0.048 0.014-0.073 0-0.035-0.013-0.070-0.020-0.105-0.006-0.032-0.006-0.064-0.019-0.096-0.025-0.053-0.055-0.098-0.092-0.138l0 0c-0.010-0.012-0.014-0.026-0.025-0.038h-0.001s0-0.001-0.001-0.002l-1.607-1.6c-0.017-0.017-0.039-0.024-0.058-0.038-0.025-0.021-0.054-0.040-0.084-0.056l-0.003-0.001c-0.027-0.012-0.058-0.023-0.090-0.031l-0.003-0.001c-0.030-0.009-0.065-0.017-0.101-0.020l-0.002-0c-0.007-0-0.015-0-0.023-0-0.026 0-0.051 0.002-0.075 0.005l0.003-0c-0.036 0.005-0.069 0.009-0.104 0.021s-0.064 0.027-0.095 0.045c-0.020 0.011-0.042 0.015-0.061 0.029l-1.773 1.324-0.901-0.897 2.399-2.386 4.361 4.289-0.928 0.919zM15.979 18.395c-0.015-0.002-0.030 0.004-0.045 0.003-0.008-0-0.017-0.001-0.027-0.001-0.031 0-0.062 0.003-0.092 0.008l0.003-0c-0.030 0.006-0.059 0.011-0.088 0.021-0.037 0.013-0.069 0.029-0.098 0.048l0.002-0.001c-0.031 0.019-0.059 0.039-0.084 0.062l0-0c-0.013 0.011-0.028 0.016-0.040 0.029l-4.698 5.146-4.328-4.257 2.833-2.818c0.096-0.097 0.156-0.23 0.156-0.377 0-0.295-0.239-0.534-0.534-0.534-0.001 0-0.001 0-0.002 0h0l-2.219 0.013 0.028-1.607 3.104 0.027c1.264 1.297 3.027 2.101 4.979 2.101 0.001 0 0.002 0 0.003 0h-0c0.438 0 0.864-0.046 1.28-0.123 0.040 0.032 0.080 0.064 0.129 0.085l2.41 0.96 0.152 0.758 0.178 0.886-3.003-0.427zM20.020 18.573l-0.313-1.558 1.446-1.080 0.946 1.257-2.080 1.382zM23.775 15.742l-0.838 0.785-0.931-1.236 0.831-0.637c0.155-0.119 0.351-0.168 0.543-0.143 0.193 0.027 0.364 0.128 0.48 0.284 0.088 0.117 0.141 0.265 0.141 0.426 0 0.206-0.087 0.391-0.226 0.521l-0 0z">
            </path>
            <path fill="#212121" style="fill: var(--color1, #212121)"
                d="M13.603 18.545l-2.143-2.134c-0.096-0.096-0.229-0.155-0.376-0.155s-0.28 0.059-0.376 0.155l-2.143 2.134c-0.097 0.097-0.156 0.23-0.156 0.378s0.060 0.281 0.156 0.378l-0-0 2.142 2.134c0.096 0.096 0.229 0.156 0.376 0.156s0.28-0.059 0.376-0.156v0l2.143-2.134c0.097-0.097 0.157-0.23 0.157-0.378s-0.060-0.281-0.157-0.378l-0-0zM11.084 20.304l-1.387-1.381 1.387-1.381 1.387 1.381-1.387 1.381zM17.165 5.071l-0.258 1.036c0.071 0.018 1.738 0.452 1.738 2.149h1.067c0-2.017-1.666-2.965-2.547-3.185zM19.712 9.322h-1.067v1.067h1.067v-1.067z">
            </path>
        </symbol>
        <symbol id="icon-logo-1" viewBox="0 0 59 32">
            <path fill="currentColor"
                d="M24.348 8.002l2.438 2.308-4.525-0.003v11.196h11.826v-4.281l2.435 2.305v-11.525h-12.174zM33.98 16.951l-6.911-6.543h6.911v6.543zM31.835 19.865h-7.702v-7.529h0.544v7.020h7.158v0.51zM25.952 22.994l-0.285 0.586-0.285-0.586h-0.239l0.415 0.781v0.455h0.216v-0.455l0.415-0.781h-0.238zM26.309 24.23l0.1-0.288h0.479l0.101 0.288h0.224l-0.468-1.237h-0.193l-0.467 1.237h0.223zM26.649 23.256l0.179 0.513h-0.358l0.179-0.513zM27.782 23.739c-0.029 0.044-0.047 0.097-0.047 0.155 0 0.001 0 0.001 0 0.002v-0c0 0.104 0.037 0.189 0.11 0.254s0.171 0.097 0.294 0.097c0.122 0 0.228-0.033 0.316-0.099l0.070 0.082h0.239l-0.182-0.215c0.071-0.097 0.107-0.222 0.107-0.374h-0.179c0 0.083-0.017 0.159-0.051 0.226l-0.239-0.282 0.084-0.061c0.051-0.035 0.094-0.078 0.127-0.127l0.001-0.002c0.024-0.040 0.039-0.089 0.039-0.141 0-0.001 0-0.001 0-0.002v0c0-0.001 0-0.003 0-0.005 0-0.076-0.033-0.144-0.086-0.191l-0-0c-0.055-0.050-0.128-0.080-0.209-0.080-0.004 0-0.009 0-0.013 0l0.001-0c-0.099 0-0.179 0.029-0.238 0.085s-0.088 0.133-0.088 0.23c0 0.040 0.009 0.081 0.028 0.123 0.019 0.042 0.053 0.094 0.101 0.154-0.091 0.066-0.153 0.122-0.184 0.17zM28.34 24.013c-0.053 0.043-0.121 0.069-0.195 0.070h-0c-0.003 0-0.006 0-0.010 0-0.053 0-0.102-0.020-0.138-0.054l0 0c-0.034-0.034-0.055-0.080-0.055-0.132 0-0.002 0-0.005 0-0.007v0c0-0.066 0.034-0.125 0.102-0.177l0.026-0.019 0.27 0.319zM28.118 23.465c-0.058-0.072-0.088-0.131-0.088-0.179 0-0.041 0.012-0.075 0.036-0.103 0.022-0.025 0.055-0.041 0.091-0.041 0.002 0 0.004 0 0.005 0h-0c0.001-0 0.003-0 0.004-0 0.034 0 0.065 0.013 0.088 0.035l-0-0c0.024 0.023 0.037 0.050 0.037 0.082 0 0.001 0 0.003 0 0.004 0 0.046-0.020 0.087-0.052 0.115l-0 0-0.026 0.022-0.094 0.064zM30.131 24.137c0.085-0.074 0.134-0.177 0.146-0.309h-0.214c-0.011 0.088-0.038 0.151-0.081 0.189s-0.106 0.057-0.19 0.057c-0.092 0-0.162-0.035-0.211-0.105-0.047-0.070-0.071-0.172-0.071-0.306v-0.109c0.001-0.132 0.027-0.232 0.077-0.3s0.122-0.103 0.216-0.103c0.080 0 0.141 0.020 0.183 0.059s0.068 0.103 0.078 0.192h0.214c-0.014-0.135-0.062-0.24-0.145-0.314s-0.193-0.111-0.329-0.111c-0.101 0-0.191 0.024-0.268 0.072-0.078 0.050-0.139 0.12-0.176 0.202l-0.001 0.003c-0.039 0.087-0.062 0.188-0.062 0.294 0 0.005 0 0.010 0 0.015v-0.001 0.115c0.002 0.114 0.023 0.214 0.064 0.3s0.099 0.152 0.173 0.199c0.075 0.047 0.162 0.070 0.261 0.070 0.141 0 0.254-0.037 0.339-0.11zM31.393 23.963c0.042-0.091 0.063-0.198 0.063-0.319v-0.069c0-0.004 0-0.009 0-0.013 0-0.11-0.024-0.214-0.066-0.308l0.002 0.005c-0.039-0.087-0.101-0.158-0.179-0.208l-0.002-0.001c-0.078-0.049-0.167-0.073-0.268-0.073s-0.19 0.024-0.268 0.074c-0.078 0.049-0.138 0.119-0.181 0.211-0.040 0.090-0.064 0.194-0.064 0.304 0 0.005 0 0.011 0 0.016v-0.001 0.070c0.001 0.118 0.022 0.223 0.064 0.313s0.104 0.161 0.182 0.21c0.079 0.049 0.168 0.073 0.268 0.073 0.102 0 0.191-0.024 0.269-0.073s0.138-0.12 0.18-0.211zM31.163 23.264c0.052 0.073 0.078 0.178 0.078 0.315v0.064c0 0.139-0.026 0.245-0.077 0.318s-0.124 0.109-0.219 0.109c-0.003 0-0.006 0-0.009 0-0.087 0-0.165-0.044-0.211-0.111l-0.001-0.001c-0.053-0.074-0.079-0.179-0.079-0.315v-0.071c0.001-0.133 0.028-0.236 0.080-0.308 0.047-0.067 0.123-0.11 0.209-0.11 0.003 0 0.006 0 0.010 0h-0c0.095 0 0.168 0.037 0.22 0.11z">
            </path>
        </symbol>
        <symbol id="icon-logo-2" viewBox="0 0 59 32">
            <path fill="currentColor"
                d="M28.562 7.631h-0.048c-0.061-0.003-0.137-0.006-0.214-0.008l-0.005-0h-0.158c-0.138 0-0.279 0.003-0.419 0.010-0.005-0-0.010-0.001-0.016-0.001s-0.011 0-0.017 0.001l0.001-0c-1.343 0.078-2.59 0.414-3.717 0.959l0.059-0.026-0.151 0.072v7.702l0.352-0.12c0.309-0.106 0.638-0.202 0.978-0.29 0.841-0.225 1.81-0.361 2.808-0.374l0.008-0v1.012c-0.126 0.001-0.248 0.004-0.37 0.010h-0.029c-0.791 0.044-1.531 0.163-2.245 0.35l0.078-0.017c-0.98 0.249-1.839 0.594-2.638 1.035l0.057-0.029v-9.877c0.78-0.463 1.681-0.841 2.636-1.086l0.072-0.016c0.765-0.206 1.643-0.325 2.55-0.329h0.151c0.178 0.005 0.351 0.013 0.514 0.025 0.429 0.030 0.854 0.098 1.271 0.202v0.996c-0.355-0.087-0.776-0.153-1.206-0.184l-0.026-0.002-0.025-0.002c-0.073-0.008-0.161-0.013-0.249-0.015l-0.003-0zM30.315 8.649c0.221 0.017 0.449 0.025 0.681 0.025 0.955-0.004 1.879-0.129 2.759-0.361l-0.076 0.017c0.98-0.25 1.839-0.595 2.637-1.035l-0.057 0.029v9.701c-0.78 0.463-1.681 0.841-2.636 1.086l-0.072 0.016c-0.765 0.205-1.644 0.325-2.55 0.328h-0.002c-0.019 0-0.041 0-0.063 0-0.665 0-1.311-0.083-1.927-0.24l0.054 0.012v-9.764c0.15 0.035 0.304 0.066 0.46 0.093 0.257 0.043 0.528 0.075 0.792 0.095zM35.252 8.725l-0.352 0.119c-0.323 0.109-0.65 0.206-0.978 0.293-0.876 0.235-1.883 0.371-2.922 0.375h-0.002c-0.23 0-0.441-0.006-0.645-0.019l-0.281-0.018v7.923l0.241 0.021c0.223 0.020 0.454 0.030 0.686 0.030 0.82-0.004 1.613-0.112 2.368-0.313l-0.065 0.015c0.69-0.175 1.289-0.397 1.857-0.672l-0.057 0.025 0.151-0.072v-7.704z">
            </path>
            <path fill="currentColor"
                d="M23.561 21.294c-0.094-0.098-0.227-0.159-0.373-0.159-0.006 0-0.013 0-0.019 0l0.001-0c-0.002-0-0.005-0-0.008-0-0.079 0-0.154 0.016-0.222 0.044l0.004-0.001c-0.134 0.054-0.237 0.158-0.288 0.289l-0.001 0.003c-0.028 0.070-0.041 0.144-0.040 0.218v1.32c-0.003 0.093 0.015 0.185 0.052 0.271 0.031 0.068 0.076 0.128 0.132 0.177 0.053 0.044 0.114 0.077 0.181 0.094 0.064 0.018 0.131 0.027 0.197 0.027 0.073 0.001 0.146-0.015 0.213-0.046 0.198-0.088 0.334-0.283 0.334-0.51v-0.148h-0.345v0.118c0 0.002 0 0.005 0 0.008 0 0.039-0.007 0.077-0.021 0.112l0.001-0.002c-0.012 0.029-0.029 0.054-0.050 0.074l-0 0c-0.040 0.031-0.090 0.050-0.144 0.050h-0c-0.006 0.001-0.013 0.001-0.020 0.001-0.058 0-0.109-0.028-0.141-0.072l-0-0c-0.029-0.047-0.046-0.103-0.046-0.163 0-0.005 0-0.009 0-0.014l-0 0.001v-1.231c-0.002-0.068 0.013-0.136 0.042-0.197 0.032-0.049 0.086-0.081 0.148-0.081 0.007 0 0.014 0 0.021 0.001l-0.001-0c0.002-0 0.004-0 0.007-0 0.060 0 0.114 0.029 0.147 0.074l0 0c0.036 0.047 0.057 0.106 0.057 0.17 0 0.003-0 0.005-0 0.008v-0 0.114h0.342v-0.135c0-0.002 0-0.004 0-0.006 0-0.081-0.015-0.158-0.044-0.229l0.001 0.004c-0.027-0.072-0.066-0.134-0.116-0.186l0 0zM25.611 21.279c-0.105-0.090-0.242-0.144-0.392-0.145h-0c-0.070 0-0.14 0.013-0.206 0.037-0.142 0.051-0.255 0.156-0.315 0.289l-0.001 0.003c-0.035 0.080-0.052 0.168-0.050 0.256v1.265c-0.002 0.089 0.015 0.177 0.050 0.259 0.031 0.068 0.077 0.128 0.134 0.177 0.053 0.049 0.115 0.087 0.182 0.111 0.066 0.024 0.136 0.037 0.206 0.037 0.151-0 0.288-0.057 0.393-0.149l-0.001 0.001c0.055-0.049 0.099-0.11 0.13-0.177 0.035-0.082 0.053-0.17 0.050-0.259v-1.266c0-0.003 0-0.008 0-0.012 0-0.088-0.018-0.172-0.052-0.247l0.002 0.004c-0.032-0.072-0.076-0.134-0.13-0.185l-0-0zM25.449 22.985c0.001 0.006 0.001 0.013 0.001 0.019 0 0.064-0.027 0.122-0.069 0.164l-0 0c-0.044 0.037-0.1 0.059-0.162 0.059s-0.119-0.022-0.163-0.059l0 0c-0.043-0.041-0.069-0.099-0.069-0.163 0-0.007 0-0.014 0.001-0.021l-0 0.001v-1.266c-0.001-0.006-0.001-0.013-0.001-0.020 0-0.064 0.027-0.122 0.069-0.163l0-0c0.044-0.037 0.1-0.059 0.162-0.059s0.119 0.022 0.163 0.059l-0-0c0.043 0.041 0.069 0.099 0.069 0.163 0 0.007-0 0.014-0.001 0.021l0-0.001v1.266zM28.302 23.55v-2.397h-0.331l-0.436 1.269h-0.006l-0.439-1.268h-0.328v2.396h0.342v-1.457h0.006l0.335 1.030h0.171l0.338-1.030h0.006v1.457h0.342zM30.247 21.322c-0.053-0.059-0.119-0.104-0.193-0.131-0.070-0.024-0.151-0.037-0.235-0.037-0.005 0-0.009 0-0.014 0h-0.508v2.397h0.341v-0.936h0.176c0.107 0.005 0.213-0.018 0.308-0.065 0.078-0.044 0.142-0.106 0.186-0.181l0.001-0.002c0.039-0.064 0.066-0.135 0.078-0.209 0.012-0.075 0.019-0.162 0.019-0.251 0-0.008-0-0.015-0-0.023v0.001c0.003-0.115-0.008-0.23-0.033-0.342-0.024-0.086-0.068-0.16-0.126-0.22l0 0zM30.071 22.052c-0.002 0.046-0.013 0.088-0.032 0.127l0.001-0.002c-0.020 0.037-0.050 0.066-0.087 0.083l-0.001 0c-0.042 0.019-0.091 0.031-0.143 0.031-0.006 0-0.012-0-0.019-0l0.001 0h-0.156v-0.815h0.176c0.005-0 0.011-0 0.016-0 0.050 0 0.097 0.011 0.14 0.031l-0.002-0.001c0.035 0.020 0.063 0.051 0.079 0.087l0 0.001c0.019 0.042 0.029 0.088 0.030 0.134v0.159c0 0.056 0.003 0.113 0 0.165h-0.003zM31.864 21.154h-0.28l-0.528 2.397h0.342l0.1-0.515h0.465l0.101 0.515h0.341l-0.541-2.397zM31.549 22.709l0.168-0.869h0.006l0.167 0.869h-0.341zM34.070 22.597h-0.006l-0.516-1.444h-0.328v2.397h0.341v-1.441h0.007l0.522 1.441h0.321v-2.396h-0.341v1.444zM36.156 21.154l-0.275 0.953h-0.007l-0.274-0.953h-0.362l0.469 1.384v1.013h0.342v-1.013l0.469-1.383h-0.361zM22.609 24.226h0.165v0.462h0.112v-0.462h0.163v-0.095h-0.44v0.095zM23.992 24.132l-0.216 0.557h0.119l0.046-0.127h0.222l0.047 0.127h0.122l-0.221-0.557h-0.119zM23.975 24.468l0.075-0.206 0.075 0.206h-0.151zM25.36 24.483h0.129v0.072c-0.036 0.029-0.082 0.047-0.132 0.047h-0c-0.002 0-0.005 0-0.008 0-0.045 0-0.084-0.021-0.11-0.053l-0-0c-0.026-0.037-0.041-0.083-0.041-0.133 0-0.004 0-0.009 0-0.013l-0 0.001c0-0.124 0.054-0.186 0.16-0.186 0.004-0 0.008-0.001 0.012-0.001 0.055 0 0.101 0.038 0.114 0.088l0 0.001 0.11-0.021c-0.024-0.109-0.102-0.163-0.236-0.163-0.002-0-0.005-0-0.008-0-0.072 0-0.137 0.027-0.187 0.072l0-0c-0.050 0.049-0.081 0.118-0.081 0.193 0 0.007 0 0.015 0.001 0.022l-0-0.001c-0 0.004-0 0.008-0 0.013 0 0.075 0.027 0.143 0.072 0.196l-0-0c0.049 0.051 0.118 0.082 0.194 0.082 0.006 0 0.012-0 0.018-0.001l-0.001 0c0.003 0 0.006 0 0.009 0 0.087 0 0.167-0.034 0.227-0.089l-0 0v-0.219h-0.241v0.094zM26.756 24.132h-0.113v0.557h0.39v-0.095h-0.277v-0.462zM27.937 24.132h-0.112v0.557h0.112v-0.557zM29.091 24.503l-0.228-0.372h-0.109v0.557h0.104v-0.363l0.224 0.363h0.112v-0.557h-0.103v0.372zM30.135 24.443h0.277v-0.095h-0.277v-0.122h0.298v-0.095h-0.411v0.557h0.422v-0.095h-0.31v-0.151zM32.666 24.351h-0.219v-0.219h-0.111v0.556h0.111v-0.243h0.219v0.243h0.112v-0.557h-0.112v0.219zM33.715 24.443h0.278v-0.095h-0.278v-0.122h0.299v-0.095h-0.41v0.557h0.422v-0.095h-0.31v-0.151zM35.139 24.443c0.097-0.015 0.146-0.066 0.146-0.155 0.001-0.005 0.001-0.010 0.001-0.016 0-0.044-0.022-0.083-0.055-0.107l-0-0c-0.041-0.021-0.090-0.033-0.141-0.033-0.008 0-0.015 0-0.023 0.001l0.001-0h-0.236v0.556h0.112v-0.233h0.022c0.003-0 0.006-0 0.009-0 0.022 0 0.043 0.005 0.062 0.013l-0.001-0c0.016 0.010 0.030 0.024 0.040 0.041l0.121 0.177h0.134l-0.068-0.109c-0.031-0.054-0.072-0.099-0.122-0.133l-0.001-0.001zM35.026 24.366h-0.082v-0.139h0.088c0.007-0.001 0.015-0.001 0.024-0.001 0.032 0 0.063 0.005 0.092 0.015l-0.002-0.001c0.015 0.014 0.024 0.033 0.024 0.055 0 0.012-0.003 0.024-0.008 0.034l0-0c-0.005 0.010-0.012 0.018-0.021 0.024l-0 0c-0.028 0.009-0.060 0.014-0.093 0.014-0.007 0-0.015-0-0.022-0.001l0.001 0zM36.213 24.443h0.277v-0.095h-0.277v-0.122h0.299v-0.095h-0.412v0.557h0.422v-0.095h-0.31v-0.151z">
            </path>
        </symbol>
        <symbol id="icon-logo-3" viewBox="0 0 59 32">
            <path fill="currentColor"
                d="M23.794 22.646c0.006 0 0.011 0.001 0.016 0.003s0.010 0.005 0.014 0.008l-0-0 0.076 0.072c-0.059 0.059-0.132 0.106-0.214 0.138-0.084 0.031-0.181 0.050-0.283 0.050-0.007 0-0.014-0-0.021-0l0.001 0c-0.097 0.002-0.194-0.014-0.284-0.046-0.083-0.030-0.154-0.074-0.215-0.13l0 0c-0.058-0.055-0.105-0.122-0.137-0.197l-0.001-0.004c-0.031-0.074-0.049-0.16-0.049-0.251 0-0.003 0-0.005 0-0.008v0c-0-0.004-0-0.009-0-0.013 0-0.177 0.077-0.336 0.199-0.446l0.001-0c0.065-0.057 0.142-0.101 0.227-0.131 0.094-0.031 0.193-0.047 0.293-0.046 0.005-0 0.012-0 0.018-0 0.091 0 0.178 0.015 0.259 0.044l-0.006-0.002c0.075 0.029 0.144 0.068 0.204 0.117l-0.064 0.077c-0.005 0.006-0.010 0.010-0.016 0.014l-0 0c-0.006 0.004-0.014 0.006-0.022 0.006-0.001 0-0.002-0-0.003-0h0c-0.010-0-0.020-0.003-0.028-0.008l0 0-0.034-0.021-0.048-0.026c-0.043-0.021-0.094-0.037-0.146-0.046l-0.003-0c-0.032-0.005-0.068-0.008-0.105-0.008-0.003 0-0.006 0-0.009 0h0c-0.002-0-0.005-0-0.007-0-0.073 0-0.143 0.013-0.208 0.036l0.004-0.001c-0.063 0.022-0.119 0.055-0.165 0.097-0.047 0.045-0.084 0.097-0.107 0.155s-0.039 0.126-0.039 0.197c0 0.003 0 0.005 0 0.008v-0c-0.001 0.071 0.012 0.141 0.039 0.208 0.025 0.060 0.061 0.112 0.105 0.154l0 0c0.043 0.042 0.097 0.075 0.158 0.096 0.062 0.022 0.128 0.034 0.195 0.033 0.039 0 0.078-0.002 0.116-0.007 0.097-0.010 0.183-0.049 0.251-0.107l-0.001 0.001c0.010-0.008 0.022-0.013 0.036-0.013h0zM25.984 22.282c0 0.002 0 0.005 0 0.008 0 0.090-0.019 0.175-0.053 0.253l0.002-0.004c-0.034 0.079-0.082 0.145-0.142 0.198l-0.001 0c-0.063 0.056-0.138 0.1-0.22 0.129l-0.005 0.001c-0.086 0.029-0.185 0.046-0.288 0.046s-0.202-0.017-0.295-0.048l0.006 0.002c-0.086-0.030-0.16-0.075-0.223-0.131l0.001 0.001c-0.061-0.055-0.11-0.122-0.143-0.197l-0.001-0.004c-0.032-0.076-0.051-0.164-0.051-0.257s0.019-0.181 0.053-0.261l-0.002 0.004c0.032-0.075 0.081-0.144 0.144-0.202 0.063-0.055 0.139-0.098 0.223-0.126 0.086-0.030 0.185-0.047 0.288-0.047s0.202 0.017 0.295 0.049l-0.006-0.002c0.084 0.030 0.16 0.074 0.224 0.131 0.062 0.057 0.111 0.125 0.143 0.199 0.035 0.083 0.053 0.17 0.051 0.258zM25.785 22.282c0-0.003 0-0.007 0-0.011 0-0.070-0.013-0.137-0.038-0.199l0.001 0.004c-0.046-0.119-0.141-0.21-0.259-0.25l-0.003-0.001c-0.063-0.021-0.135-0.034-0.21-0.034s-0.147 0.012-0.214 0.035l0.005-0.001c-0.062 0.022-0.116 0.055-0.161 0.098l0-0c-0.044 0.042-0.079 0.094-0.101 0.151l-0.001 0.003c-0.023 0.061-0.036 0.132-0.036 0.206s0.013 0.145 0.038 0.21l-0.001-0.004c0.046 0.119 0.141 0.21 0.26 0.25l0.003 0.001c0.135 0.044 0.284 0.044 0.419 0 0.061-0.021 0.116-0.054 0.16-0.096 0.046-0.045 0.080-0.097 0.102-0.154 0.025-0.066 0.038-0.136 0.036-0.206zM27.479 22.498l0.020 0.046c0.007-0.016 0.014-0.031 0.022-0.046 0.007-0.016 0.016-0.031 0.025-0.045l0.485-0.766c0.010-0.013 0.018-0.022 0.028-0.024s0.021-0.004 0.033-0.004c0.002 0 0.005 0 0.007 0h0.143v1.245h-0.17v-0.954c-0-0.006-0.001-0.014-0.001-0.022s0-0.015 0.001-0.023l-0 0.001-0.488 0.776c-0.007 0.012-0.016 0.022-0.028 0.028l-0 0c-0.012 0.007-0.026 0.010-0.041 0.010-0 0-0 0-0.001 0h-0.027c-0 0-0.001 0-0.001 0-0.015 0-0.029-0.004-0.041-0.011l0 0c-0.012-0.007-0.022-0.016-0.028-0.028l-0-0-0.502-0.781v0.999h-0.164v-1.242h0.143c0.002-0 0.004-0 0.007-0 0.012 0 0.023 0.002 0.034 0.005l-0.001-0c0.012 0.005 0.021 0.014 0.026 0.024l0.495 0.766c0.010 0.014 0.018 0.029 0.025 0.045zM29.303 22.436v0.466h-0.189v-1.243h0.423c0.080-0.001 0.16 0.008 0.236 0.027 0.062 0.015 0.118 0.042 0.167 0.078 0.041 0.032 0.073 0.073 0.094 0.12l0.001 0.002c0.022 0.051 0.033 0.105 0.032 0.159 0 0.002 0 0.005 0 0.008 0 0.112-0.054 0.212-0.137 0.275l-0.001 0.001c-0.049 0.037-0.106 0.065-0.168 0.082-0.064 0.018-0.137 0.029-0.213 0.029-0.006 0-0.011-0-0.017-0h0.001l-0.23-0.003zM29.303 22.303h0.23c0.050 0.001 0.099-0.006 0.147-0.019 0.041-0.012 0.076-0.030 0.107-0.054l-0.001 0.001c0.053-0.044 0.087-0.11 0.087-0.184 0-0.001 0-0.002-0-0.003v0c0-0.004 0-0.009 0-0.013 0-0.032-0.007-0.062-0.020-0.089l0.001 0.001c-0.016-0.034-0.038-0.062-0.066-0.085l-0-0c-0.063-0.043-0.141-0.068-0.225-0.068-0.011 0-0.021 0-0.031 0.001l0.001-0h-0.23v0.512zM31.852 22.904h-0.15c-0.001 0-0.002 0-0.003 0-0.014 0-0.028-0.004-0.039-0.012l0 0c-0.011-0.007-0.019-0.017-0.025-0.028l-0-0-0.129-0.301h-0.648l-0.134 0.301c-0.012 0.024-0.036 0.040-0.064 0.040-0.001 0-0.001 0-0.002-0h-0.15l0.569-1.245h0.197l0.577 1.245zM30.913 22.442h0.535l-0.226-0.507c-0.017-0.038-0.031-0.077-0.042-0.117l-0.022 0.065c-0.007 0.020-0.014 0.038-0.021 0.053l-0.224 0.506zM32.672 21.665c0.011 0.005 0.021 0.013 0.029 0.022l0.83 0.939v-0.967h0.17v1.245h-0.095c-0.001 0-0.001 0-0.002 0-0.013 0-0.026-0.003-0.037-0.008l0.001 0c-0.012-0.006-0.022-0.014-0.030-0.023l-0-0-0.829-0.938c0 0.006 0.001 0.014 0.001 0.021s-0 0.015-0.001 0.022l0-0.001v0.925h-0.17v-1.245h0.101c0.011 0 0.023 0.002 0.034 0.006zM35.097 22.409v0.494h-0.19v-0.494l-0.525-0.75h0.17c0.001-0 0.003-0 0.004-0 0.014 0 0.026 0.004 0.037 0.011l-0-0c0.010 0.008 0.019 0.017 0.025 0.028l0 0 0.328 0.484c0.022 0.032 0.042 0.068 0.057 0.107l0.001 0.003 0.025-0.053c0.009-0.020 0.020-0.039 0.032-0.057l0.323-0.487c0.007-0.010 0.015-0.019 0.024-0.026l0-0c0.010-0.008 0.023-0.012 0.037-0.012 0.001 0 0.002 0 0.004 0h0.172l-0.526 0.753zM27.385 19.57c0.083 0.009 0.166 0.016 0.25 0.023 1.28-0.497 2.362-1.311 3.112-2.34s1.134-2.227 1.105-3.445l-1.41-1.225c0.287 1.296 0.152 2.637-0.387 3.871s-1.464 2.313-2.67 3.117z">
            </path>
            <path fill="currentColor"
                d="M26.882 19.513l0.038 0.007c1.288-0.801 2.271-1.919 2.82-3.21s0.64-2.695 0.261-4.031l-2.009-1.745c0.812 1.434 1.139 3.040 0.943 4.63s-0.908 3.098-2.052 4.35zM33.694 15.246c-0.341 1.338-1.17 2.544-2.363 3.441-0.326 0.248-0.694 0.481-1.081 0.681l-0.042 0.020c0.971-0.248 1.864-0.687 2.61-1.282s1.324-1.331 1.69-2.152l-0.815-0.707z">
            </path>
            <path fill="currentColor"
                d="M33.374 15.049l-1.16-1.008c-0.022 1.149-0.398 2.272-1.089 3.252s-1.671 1.781-2.838 2.321h0.006c0.26 0 0.52-0.014 0.778-0.040 1.091-0.387 2.055-1.003 2.806-1.792s1.265-1.728 1.497-2.732zM27.049 9.797l-1.384-1.204c-1.237 0.415-2.301 1.145-3.052 2.095s-1.155 2.074-1.159 3.226c0.005 1.273 0.498 2.509 1.402 3.511s2.166 1.714 3.588 2.022c1.269-1.343 2.012-3.003 2.121-4.739s-0.422-3.456-1.515-4.911zM36.571 14.864c-0.005-1.51-0.698-2.958-1.927-4.026s-2.895-1.67-4.634-1.674c-0.803-0.001-1.6 0.128-2.349 0.38l8.471 7.36c0.276-0.6 0.438-1.301 0.438-2.040v-0z">
            </path>
        </symbol>
        <symbol id="icon-logo-4" viewBox="0 0 59 32">
            <path fill="currentColor"
                d="M19.529 12.908h-0.001c-0.834 0-1.51 0.601-1.51 1.342v0.001c0 0.741 0.676 1.342 1.51 1.342h0.001c0.834 0 1.51-0.601 1.51-1.342v-0.001c0-0.742-0.676-1.343-1.51-1.343zM30.677 12.479c-0.002-1.030-0.464-2.017-1.283-2.745s-1.929-1.138-3.088-1.141c-1.159 0.002-2.27 0.412-3.089 1.14s-1.281 1.715-1.284 2.745v5.678s8.742-0.865 8.743-5.677v-0.001zM14.957 20.020c0.002 0.717 0.323 1.403 0.893 1.91s1.342 0.792 2.148 0.794c0.806-0.002 1.578-0.288 2.148-0.794s0.891-1.193 0.893-1.909v-3.951s-6.083 0.603-6.083 3.95zM17.998 20.728c-0.158 0-0.311-0.042-0.442-0.119-0.127-0.075-0.228-0.183-0.291-0.314l-0.002-0.004c-0.038-0.079-0.060-0.172-0.060-0.27 0-0.049 0.006-0.097 0.016-0.143l-0.001 0.004c0.031-0.137 0.106-0.264 0.218-0.362s0.253-0.167 0.408-0.194c0.047-0.009 0.101-0.014 0.156-0.014 0.109 0 0.214 0.020 0.311 0.056l-0.006-0.002c0.145 0.054 0.27 0.144 0.357 0.261s0.134 0.253 0.134 0.393c0 0.001 0 0.001 0 0.002 0 0.098-0.022 0.191-0.061 0.274l0.002-0.004c-0.043 0.090-0.101 0.167-0.172 0.23l-0.001 0.001c-0.074 0.066-0.162 0.118-0.259 0.154-0.090 0.034-0.195 0.054-0.304 0.054-0 0-0.001 0-0.002 0h0v-0.003zM24.146 20.338h-0.587v0.606h-0.306v-1.484h0.966v0.248h-0.661v0.383h0.587v0.247zM25.615 20.236c0 0.146-0.026 0.274-0.077 0.384s-0.126 0.195-0.223 0.255c-0.091 0.056-0.201 0.090-0.319 0.090-0.004 0-0.008-0-0.011-0h0.001c-0.123 0-0.233-0.030-0.329-0.089-0.097-0.061-0.174-0.147-0.222-0.249l-0.002-0.004c-0.051-0.107-0.080-0.233-0.080-0.366 0-0.005 0-0.009 0-0.014v0.001-0.073c0-0.146 0.026-0.275 0.078-0.385s0.127-0.197 0.223-0.256c0.096-0.060 0.206-0.090 0.33-0.090s0.233 0.030 0.329 0.090c0.096 0.059 0.171 0.144 0.223 0.256s0.079 0.239 0.079 0.384v0.066zM25.305 20.168c0-0.155-0.028-0.274-0.083-0.355-0.050-0.074-0.133-0.121-0.227-0.121-0.004 0-0.008 0-0.013 0l0.001-0c-0.003-0-0.008-0-0.012-0-0.094 0-0.176 0.047-0.225 0.12l-0.001 0.001c-0.056 0.080-0.084 0.197-0.085 0.351v0.072c0 0.151 0.028 0.269 0.083 0.353s0.136 0.125 0.241 0.125c0.004 0 0.008 0 0.012 0 0.093 0 0.176-0.047 0.224-0.12l0.001-0.001c0.055-0.081 0.083-0.198 0.083-0.353v-0.072zM26.606 20.554c0-0.003 0-0.006 0-0.009 0-0.050-0.024-0.095-0.061-0.123l-0-0c-0.041-0.031-0.114-0.064-0.22-0.098-0.098-0.030-0.181-0.065-0.26-0.106l0.009 0.004c-0.169-0.091-0.253-0.214-0.253-0.368 0-0.080 0.023-0.151 0.067-0.214 0.046-0.063 0.111-0.112 0.195-0.148s0.18-0.053 0.285-0.053c0.106 0 0.2 0.019 0.283 0.058s0.147 0.092 0.192 0.162c0.046 0.070 0.070 0.15 0.070 0.238h-0.306c0-0.068-0.021-0.121-0.064-0.158-0.043-0.038-0.103-0.057-0.18-0.057-0.075 0-0.133 0.016-0.174 0.048-0.038 0.027-0.062 0.071-0.062 0.121 0 0.001 0 0.002 0 0.004v-0c0 0.048 0.024 0.089 0.072 0.121 0.062 0.038 0.133 0.069 0.209 0.090l0.006 0.001c0.174 0.052 0.301 0.117 0.38 0.195s0.119 0.174 0.119 0.289c0 0.129-0.049 0.23-0.146 0.303s-0.227 0.109-0.392 0.109c-0.114 0-0.218-0.021-0.312-0.063-0.088-0.037-0.161-0.096-0.214-0.17l-0.001-0.002c-0.046-0.069-0.073-0.153-0.073-0.243 0-0.003 0-0.007 0-0.010v0h0.306c0 0.163 0.098 0.246 0.294 0.246 0.073 0 0.129-0.015 0.17-0.044 0.037-0.027 0.061-0.070 0.061-0.119 0-0.002-0-0.004-0-0.006v0zM28.238 19.708h-0.454v1.236h-0.306v-1.236h-0.448v-0.248h1.208v0.248zM29.306 20.301h-0.587v0.398h0.689v0.246h-0.994v-1.484h0.993v0.248h-0.687v0.354h0.587v0.239zM30.137 20.401h-0.243v0.543h-0.306v-1.484h0.551c0.175 0 0.311 0.039 0.406 0.117s0.143 0.189 0.143 0.331c0 0.101-0.022 0.186-0.066 0.254-0.049 0.071-0.117 0.127-0.196 0.16l-0.003 0.001 0.321 0.606v0.014h-0.328l-0.278-0.543zM29.893 20.153h0.247c0.077 0 0.136-0.019 0.178-0.058 0.039-0.038 0.063-0.092 0.063-0.151 0-0.004-0-0.008-0-0.012l0 0.001c0-0.070-0.020-0.125-0.060-0.165s-0.1-0.060-0.183-0.060h-0.246v0.445zM31.746 20.421v0.523h-0.306v-1.484h0.579c0.111 0 0.209 0.021 0.294 0.061s0.15 0.099 0.196 0.174c0.045 0.075 0.068 0.16 0.068 0.256 0 0.145-0.050 0.26-0.15 0.344s-0.237 0.126-0.413 0.126h-0.268zM31.746 20.174h0.273c0.081 0 0.143-0.019 0.184-0.057 0.043-0.038 0.064-0.093 0.064-0.163 0-0.003 0-0.007 0-0.011 0-0.064-0.024-0.122-0.064-0.166l0 0c-0.043-0.045-0.102-0.068-0.177-0.069h-0.28v0.466zM33.68 20.301h-0.587v0.398h0.689v0.246h-0.994v-1.484h0.993v0.248h-0.687v0.354h0.587v0.239zM35.098 19.708h-0.455v1.236h-0.306v-1.236h-0.448v-0.248h1.209v0.248zM36.166 20.301h-0.587v0.398h0.689v0.246h-0.994v-1.484h0.992v0.248h-0.687v0.354h0.587v0.239zM36.997 20.401h-0.243v0.543h-0.306v-1.484h0.551c0.175 0 0.31 0.039 0.406 0.117s0.143 0.189 0.143 0.331c0 0.101-0.022 0.186-0.066 0.254-0.049 0.071-0.117 0.127-0.196 0.16l-0.003 0.001 0.321 0.606v0.014h-0.328l-0.278-0.543zM36.753 20.153h0.247c0.077 0 0.136-0.019 0.178-0.058 0.042-0.040 0.063-0.094 0.063-0.162 0-0.070-0.020-0.125-0.060-0.165s-0.1-0.060-0.182-0.060h-0.246v0.445zM38.55 20.555c0-0.003 0-0.006 0-0.009 0-0.050-0.024-0.095-0.061-0.124l-0-0c-0.041-0.031-0.114-0.064-0.22-0.098-0.098-0.030-0.181-0.065-0.26-0.106l0.009 0.004c-0.169-0.091-0.253-0.214-0.253-0.368 0-0.080 0.022-0.151 0.067-0.214s0.111-0.112 0.195-0.148c0.085-0.035 0.18-0.053 0.285-0.053 0.106 0 0.2 0.019 0.283 0.058s0.147 0.092 0.192 0.162c0.046 0.070 0.070 0.15 0.070 0.238h-0.306c0-0.068-0.022-0.121-0.064-0.158-0.043-0.038-0.103-0.057-0.18-0.057-0.075 0-0.133 0.016-0.174 0.048-0.038 0.027-0.062 0.071-0.062 0.12 0 0.001 0 0.003 0 0.004v-0c0 0.048 0.024 0.089 0.072 0.121s0.121 0.063 0.215 0.091c0.174 0.052 0.301 0.117 0.38 0.195s0.119 0.174 0.119 0.289c0 0.129-0.049 0.23-0.146 0.303s-0.228 0.109-0.392 0.109c-0.114 0-0.218-0.021-0.312-0.063-0.088-0.038-0.161-0.096-0.214-0.17l-0.001-0.002c-0.046-0.069-0.074-0.153-0.074-0.244 0-0.003 0-0.006 0-0.010v0h0.307c0 0.163 0.098 0.246 0.294 0.246 0.073 0 0.129-0.015 0.17-0.044 0.037-0.027 0.061-0.070 0.061-0.119 0-0.002-0-0.004-0-0.005v0z">
            </path>
        </symbol>
        <symbol id="icon-logo-5" viewBox="0 0 59 32">
            <path fill="currentColor"
                d="M20.438 21.128c0.085 0.096 0.13 0.216 0.128 0.34 0 0.008 0.001 0.017 0.001 0.026 0 0.076-0.017 0.148-0.048 0.212l0.001-0.003c-0.037 0.077-0.088 0.142-0.151 0.193l-0.001 0.001c-0.144 0.099-0.322 0.159-0.514 0.159-0.021 0-0.042-0.001-0.063-0.002l0.003 0h-1.010v-2.153h0.989c0.017-0.001 0.038-0.002 0.058-0.002 0.182 0 0.351 0.054 0.493 0.147l-0.003-0.002c0.064 0.049 0.115 0.111 0.148 0.181s0.048 0.146 0.044 0.223c0.006 0.118-0.035 0.235-0.115 0.329-0.077 0.086-0.183 0.145-0.301 0.168 0.134 0.022 0.255 0.088 0.341 0.184zM19.253 20.803h0.423c0.096 0.006 0.191-0.019 0.269-0.072 0.031-0.026 0.055-0.058 0.071-0.094l0.001-0.002c0.012-0.028 0.020-0.060 0.020-0.094 0-0.007-0-0.014-0.001-0.021l0 0.001c0-0.005 0.001-0.012 0.001-0.018 0-0.035-0.007-0.068-0.020-0.098l0.001 0.002c-0.017-0.038-0.041-0.070-0.070-0.096l-0-0c-0.068-0.046-0.152-0.074-0.243-0.074-0.012 0-0.024 0-0.035 0.001l0.002-0h-0.416v0.565zM19.986 21.628c0.033-0.026 0.059-0.059 0.077-0.097l0.001-0.002c0.014-0.030 0.023-0.066 0.023-0.103 0-0.006-0-0.012-0.001-0.018l0 0.001c0-0.005 0-0.010 0-0.016 0-0.038-0.009-0.075-0.024-0.108l0.001 0.002c-0.019-0.040-0.046-0.073-0.079-0.099l-0.001-0c-0.073-0.049-0.163-0.079-0.259-0.079-0.010 0-0.020 0-0.029 0.001l0.001-0h-0.444v0.592h0.449c0.101 0.005 0.201-0.021 0.284-0.075zM22.459 22.054l-0.55-0.842h-0.207v0.842h-0.473v-2.154h0.896c0.019-0.001 0.041-0.002 0.063-0.002 0.211 0 0.406 0.070 0.563 0.187l-0.002-0.002c0.125 0.117 0.201 0.271 0.213 0.434s-0.040 0.326-0.146 0.457c-0.111 0.114-0.258 0.193-0.423 0.218l-0.004 0 0.586 0.861h-0.515zM21.703 20.918h0.387c0.269 0 0.404-0.109 0.404-0.326 0-0.005 0-0.011 0-0.017 0-0.041-0.008-0.080-0.023-0.115l0.001 0.002c-0.018-0.044-0.044-0.081-0.077-0.111l-0-0c-0.074-0.055-0.166-0.089-0.267-0.089-0.013 0-0.026 0.001-0.039 0.002l0.002-0h-0.392l0.005 0.655zM25.047 21.62h-0.943l-0.167 0.434h-0.496l0.866-2.129h0.537l0.863 2.129h-0.496l-0.163-0.433zM24.921 21.294l-0.345-0.909-0.345 0.909h0.689zM28.286 22.054h-0.47l-1.054-1.464v1.464h-0.469v-2.154h0.469l1.054 1.473v-1.473h0.47v2.154zM30.969 21.538c-0.097 0.162-0.245 0.295-0.425 0.38-0.183 0.086-0.397 0.136-0.622 0.136-0.014 0-0.027-0-0.040-0.001l0.002 0h-0.836v-2.154h0.837c0.011-0 0.025-0 0.038-0 0.226 0 0.44 0.049 0.633 0.137l-0.009-0.004c0.179 0.083 0.328 0.214 0.425 0.376 0.097 0.175 0.147 0.369 0.147 0.565s-0.050 0.39-0.147 0.565zM30.431 21.487c0.134-0.143 0.208-0.326 0.208-0.514-0.001-0.2-0.080-0.38-0.208-0.514l0 0c-0.146-0.115-0.332-0.185-0.535-0.185-0.019 0-0.038 0.001-0.056 0.002l0.003-0h-0.326v1.394h0.326c0.016 0.001 0.035 0.002 0.054 0.002 0.203 0 0.389-0.070 0.536-0.186l-0.002 0.001zM25.342 7.921s6.066 2.097 5.937 5.131v5.132s-6.061-2.098-5.935-5.132l-0.002-5.131zM36.682 16.983c1.146-0.722 2.471-1.169 3.854-1.3v-1.607c-1.594 0.563-2.946 1.583-3.854 2.907z">
            </path>
            <path fill="currentColor"
                d="M35.994 17.467c0.937-1.729 2.563-3.063 4.542-3.728v-4.629s-8.638 2.987-8.456 7.308v7.307s0.385-0.134 0.991-0.384c0-0.233 0-0.469 0.028-0.706 0.178-2.006 1.22-3.864 2.895-5.168z">
            </path>
            <path fill="currentColor"
                d="M35.173 20.181c0.045-0.507 0.146-1.008 0.302-1.496-1.044 1.125-1.675 2.522-1.806 3.992-0.013 0.139-0.020 0.278-0.023 0.421 0.721-0.315 1.266-0.583 1.801-0.869l-0.139 0.068c-0.153-0.696-0.198-1.408-0.134-2.116zM35.516 20.207c-0.017 0.177-0.027 0.384-0.027 0.592 0 0.469 0.049 0.926 0.141 1.367l-0.008-0.043c2.36-1.293 5.012-3.291 4.91-5.706v-0.21c-1.686 0.173-3.264 0.848-4.49 1.921-0.27 0.608-0.457 1.313-0.524 2.053l-0.002 0.026z">
            </path>
        </symbol>
        <symbol id="icon-logo-6" viewBox="0 0 59 32">
            <path fill="currentColor"
                d="M29.714 15.101c-0.133-0.171-0.213-0.389-0.213-0.625 0-0.023 0.001-0.047 0.002-0.070l-0 0.003v-1.003c0-0.307 0.070-0.541 0.209-0.701s0.379-0.239 0.718-0.239c0.319 0 0.546 0.068 0.68 0.204 0.146 0.174 0.217 0.386 0.201 0.6v0.236h-0.57v-0.239c0.002-0.078-0.003-0.157-0.017-0.234-0.010-0.056-0.039-0.105-0.081-0.138l-0-0c-0.051-0.035-0.115-0.055-0.183-0.055-0.008 0-0.017 0-0.025 0.001l0.001-0c-0.007-0.001-0.016-0.001-0.024-0.001-0.072 0-0.139 0.022-0.194 0.059l0.001-0.001c-0.047 0.038-0.081 0.091-0.094 0.151l-0 0.002c-0.014 0.069-0.023 0.148-0.023 0.229 0 0.007 0 0.013 0 0.020v-0.001 1.217c-0.009 0.117 0.016 0.235 0.073 0.342 0.030 0.037 0.068 0.065 0.112 0.082l0.002 0.001c0.034 0.014 0.073 0.021 0.114 0.021 0.012 0 0.024-0.001 0.035-0.002l-0.001 0c0.007 0.001 0.015 0.001 0.024 0.001 0.067 0 0.129-0.021 0.179-0.057l-0.001 0.001c0.044-0.037 0.075-0.088 0.085-0.146l0-0.001c0.014-0.081 0.019-0.162 0.018-0.244v-0.247h0.571v0.225c0.001 0.018 0.002 0.039 0.002 0.060 0 0.217-0.075 0.416-0.201 0.573l0.001-0.002c-0.131 0.149-0.355 0.223-0.683 0.223s-0.577-0.080-0.717-0.245zM32.090 15.111c-0.144-0.157-0.216-0.384-0.216-0.685v-1.055c0-0.298 0.072-0.524 0.216-0.677s0.385-0.229 0.723-0.229c0.336 0 0.575 0.077 0.72 0.229 0.144 0.153 0.217 0.378 0.217 0.677v1.055c0 0.298-0.073 0.527-0.22 0.684s-0.385 0.235-0.717 0.235-0.578-0.080-0.724-0.234zM33.079 14.858c0.052-0.097 0.075-0.205 0.069-0.312v-1.292c0.001-0.010 0.001-0.023 0.001-0.035 0-0.099-0.025-0.193-0.070-0.274l0.002 0.003c-0.030-0.037-0.070-0.066-0.115-0.083l-0.002-0.001c-0.033-0.013-0.072-0.020-0.112-0.020-0.014 0-0.027 0.001-0.040 0.003l0.002-0c-0.012-0.002-0.025-0.002-0.039-0.002-0.040 0-0.079 0.008-0.115 0.021l0.002-0.001c-0.047 0.018-0.087 0.047-0.117 0.083l-0 0.001c-0.052 0.096-0.075 0.201-0.069 0.306v1.298c-0.007 0.107 0.016 0.215 0.069 0.312 0.033 0.033 0.074 0.059 0.12 0.077 0.043 0.018 0.094 0.028 0.147 0.028s0.103-0.010 0.149-0.029l-0.003 0.001c0.046-0.018 0.087-0.045 0.12-0.077v-0.006zM34.437 12.498h0.614l0.462 1.946 0.473-1.946h0.598l0.061 2.809h-0.442l-0.047-1.952-0.456 1.952h-0.354l-0.473-1.959-0.044 1.959h-0.447l0.056-2.809zM37.333 12.498h0.957c0.551 0 0.827 0.266 0.827 0.798 0 0.509-0.29 0.764-0.871 0.763h-0.326v1.248h-0.591l0.003-2.809zM38.151 13.698c0.058 0.007 0.118 0.002 0.174-0.014s0.107-0.041 0.151-0.075c0.068-0.095 0.098-0.206 0.085-0.317 0-0.009 0.001-0.020 0.001-0.031 0-0.080-0.011-0.157-0.030-0.23l0.001 0.006c-0.009-0.030-0.024-0.056-0.044-0.077l0 0c-0.021-0.023-0.045-0.042-0.073-0.056l-0.001-0.001c-0.069-0.029-0.149-0.046-0.233-0.046-0.011 0-0.022 0-0.032 0.001l0.002-0h-0.229v0.84h0.229zM39.969 12.498h0.635l0.651 2.809h-0.551l-0.129-0.648h-0.566l-0.133 0.648h-0.559l0.651-2.809zM40.512 14.334l-0.221-1.179-0.221 1.179h0.442zM41.781 12.498h0.414l0.792 1.602v-1.602h0.49v2.809h-0.393l-0.797-1.673v1.673h-0.507l0.001-2.809zM44.625 14.235l-0.658-1.734h0.554l0.402 1.114 0.377-1.114h0.543l-0.65 1.734v1.071h-0.567v-1.071zM30.626 16.535v0.147h-0.482v1.142h-0.202v-1.142h-0.485v-0.147h1.169zM32.137 17.824h-0.156c-0.001 0-0.003 0-0.004 0-0.015 0-0.028-0.005-0.040-0.012l0 0c-0.011-0.007-0.020-0.017-0.026-0.029l-0-0-0.139-0.306h-0.669l-0.139 0.306c-0.004 0.014-0.012 0.025-0.022 0.035l-0 0c-0.011 0.008-0.025 0.012-0.040 0.012-0.001 0-0.003-0-0.004-0h-0.156l0.591-1.288h0.206l0.598 1.284zM31.159 17.345h0.558l-0.237-0.525c-0.015-0.033-0.030-0.073-0.042-0.115l-0.002-0.007c-0.008 0.024-0.015 0.048-0.022 0.069l-0.022 0.054-0.234 0.523zM33.156 17.697c0.037 0.002 0.074 0.002 0.111 0 0.032-0.003 0.063-0.008 0.094-0.015 0.029-0.006 0.057-0.014 0.085-0.023 0.026-0.009 0.052-0.021 0.079-0.032v-0.29h-0.236c-0.001 0-0.001 0-0.002 0-0.011 0-0.022-0.004-0.030-0.011l0 0c-0.004-0.003-0.007-0.006-0.009-0.010l-0-0c-0.002-0.003-0.003-0.007-0.003-0.012 0-0 0-0.001 0-0.001v0-0.099h0.458v0.494c-0.072 0.045-0.155 0.081-0.243 0.103l-0.006 0.001c-0.049 0.013-0.098 0.021-0.148 0.027-0.057 0.006-0.115 0.008-0.173 0.008-0.002 0-0.005 0-0.008 0-0.104 0-0.204-0.018-0.297-0.050l0.006 0.002c-0.091-0.032-0.17-0.077-0.238-0.135l0.001 0.001c-0.063-0.056-0.115-0.124-0.151-0.2l-0.002-0.004c-0.034-0.076-0.054-0.165-0.054-0.259 0-0.003 0-0.006 0-0.009v0c-0-0.002-0-0.005-0-0.008 0-0.094 0.020-0.184 0.055-0.266l-0.002 0.004c0.034-0.077 0.086-0.146 0.152-0.204 0.067-0.058 0.148-0.103 0.237-0.134 0.101-0.033 0.209-0.049 0.317-0.048 0.055 0 0.11 0.003 0.164 0.011 0.048 0.007 0.095 0.018 0.141 0.033 0.042 0.013 0.081 0.031 0.118 0.051 0.036 0.020 0.071 0.042 0.103 0.067l-0.057 0.080c-0.005 0.007-0.011 0.013-0.019 0.017l-0 0c-0.008 0.004-0.017 0.007-0.027 0.007h-0c-0.013-0-0.026-0.004-0.037-0.010l0 0c-0.024-0.011-0.043-0.021-0.061-0.032l0.003 0.002c-0.022-0.012-0.048-0.024-0.075-0.034l-0.004-0.001c-0.030-0.011-0.067-0.021-0.104-0.028l-0.005-0.001c-0.043-0.007-0.092-0.011-0.142-0.011-0.003 0-0.006 0-0.008 0h0c-0.002-0-0.005-0-0.007-0-0.079 0-0.155 0.013-0.226 0.037l0.005-0.001c-0.066 0.023-0.125 0.057-0.174 0.102-0.047 0.044-0.084 0.097-0.108 0.157l-0.001 0.003c-0.025 0.064-0.040 0.138-0.040 0.215s0.015 0.151 0.041 0.219l-0.001-0.004c0.026 0.061 0.066 0.116 0.118 0.162 0.048 0.044 0.107 0.079 0.172 0.102 0.075 0.022 0.155 0.031 0.234 0.025zM35.039 17.677h0.645v0.147h-0.842v-1.288h0.202l-0.005 1.142zM36.356 17.824h-0.202v-1.288h0.202v1.288zM37.107 16.541c0.012 0.006 0.022 0.014 0.031 0.023l0 0 0.864 0.971c-0.001-0.007-0.001-0.015-0.001-0.023s0-0.016 0.001-0.024l-0 0.001v-0.96h0.176v1.294h-0.102c-0.002 0-0.004 0-0.007 0-0.013 0-0.026-0.003-0.038-0.008l0.001 0c-0.012-0.006-0.023-0.015-0.032-0.024l-0-0-0.863-0.97v1.002h-0.169v-1.288h0.105c0.011 0 0.023 0.002 0.033 0.006zM39.665 16.535v0.142h-0.716v0.425h0.58v0.137h-0.58v0.44h0.716v0.142h-0.924v-1.285h0.924zM18.491 8.578l8.972 2.2v7.707l-8.972-2.198v-7.709zM17.916 7.921v8.74l10.122 2.482v-8.739l-10.122-2.483z">
            </path>
            <path fill="currentColor" d="M23.341 23.2l-10.123-2.484v-8.739l10.123 2.483v8.74z"></path>
            <path fill="currentColor"
                d="M18.084 8.479l8.855 2.172-3.766 3.252-8.857-2.173 3.767-3.251zM17.916 7.921l-4.698 4.056 10.123 2.484 4.697-4.056-10.122-2.483zM23.911 22.708l4.127-3.564-4.128-1.013v4.577z">
            </path>
        </symbol>
        <symbol id="icon-clock" viewBox="0 0 32 32">
            <path fill="#212121" style="fill: var(--color1, #212121)"
                d="M31.298 15.302c-0.001-8.452-6.855-15.303-15.309-15.302s-15.303 6.856-15.302 15.309c0.002 6.788 4.422 12.543 10.541 14.545l0.108 0.031c0.061 0.019 0.123 0.029 0.187 0.029 0.12 0 0.238-0.032 0.342-0.094 0.135-0.080 0.236-0.207 0.283-0.357l3.865-12.251c1.054-0.004 1.906-0.859 1.906-1.913 0-1.056-0.856-1.913-1.913-1.913-0.303 0-0.59 0.071-0.845 0.196l0.011-0.005-5.106-5.107c-0.114-0.11-0.271-0.179-0.443-0.179-0.352 0-0.638 0.286-0.638 0.638 0 0.172 0.068 0.328 0.179 0.443l-0-0 5.103 5.109c-0.121 0.241-0.191 0.525-0.191 0.826 0 0.602 0.283 1.137 0.723 1.48l0.004 0.003-3.682 11.674c-7.278-2.681-11.005-10.755-8.324-18.033s10.754-11.005 18.033-8.324c7.278 2.681 11.005 10.754 8.324 18.032-1.345 3.581-4.003 6.407-7.374 7.938l-0.088 0.036-0.398-1.874c-0.063-0.291-0.318-0.506-0.624-0.506-0.164 0-0.313 0.062-0.426 0.163l0.001-0.001-3.837 3.426c-0.132 0.117-0.214 0.287-0.214 0.477 0 0.283 0.185 0.524 0.441 0.606l0.005 0.001 4.899 1.564c0.058 0.020 0.126 0.031 0.196 0.031 0.352 0 0.637-0.285 0.637-0.637 0-0.047-0.005-0.093-0.015-0.138l0.001 0.004-0.391-1.839c5.528-2.374 9.329-7.772 9.329-14.057 0-0.011 0-0.023-0-0.034v0.002zM15.993 14.664c0.352 0 0.638 0.286 0.638 0.638s-0.286 0.638-0.638 0.638v0c-0.352 0-0.638-0.286-0.638-0.638s0.286-0.638 0.638-0.638v0zM18.093 29.529l2.184-1.948 0.603 2.84-2.787-0.892z">
            </path>
            <path fill="#2196f3" style="fill: var(--color2, #2196f3)"
                d="M15.355 3.185v1.275c0 0.352 0.286 0.638 0.638 0.638s0.638-0.286 0.638-0.638v0-1.275c0-0.352-0.286-0.638-0.638-0.638s-0.638 0.286-0.638 0.638v0zM3.876 14.664c-0.352 0-0.638 0.286-0.638 0.638s0.286 0.638 0.638 0.638h1.275c0.352 0 0.638-0.286 0.638-0.638s-0.286-0.638-0.638-0.638h-1.275zM28.109 15.94c0.352 0 0.638-0.286 0.638-0.638s-0.286-0.638-0.638-0.638h-1.275c-0.352 0-0.638 0.286-0.638 0.638s0.286 0.638 0.638 0.638h1.275z">
            </path>
        </symbol>
        <symbol id="icon-diagram" viewBox="0 0 32 32">
            <path fill="#2196f3" style="fill: var(--color2, #2196f3)"
                d="M14.926 14.965h1.066v4.798h-1.066v-4.798zM19.191 17.098h1.066v2.665h-1.066v-2.665zM10.661 18.697h1.066v1.066h-1.066v-1.066zM7.463 18.163h1.066v1.599h-1.066v-1.599z">
            </path>
            <path fill="#212121" style="fill: var(--color1, #212121)"
                d="M1.599 28.292h25.587c0 0 0 0 0 0 0.883 0 1.599-0.716 1.599-1.599v0-2.132c0-0.883-0.716-1.599-1.599-1.599v0h-0.533v-13.294l3.028-2.868c0.207 0.104 0.452 0.166 0.711 0.166 0.888 0 1.608-0.72 1.608-1.608s-0.72-1.608-1.608-1.608c-0.888 0-1.608 0.72-1.608 1.608 0 0.247 0.056 0.481 0.155 0.69l-0.004-0.010-2.281 2.162v-1.23c0-0.883-0.716-1.599-1.599-1.599v0h-21.323c-0.883 0-1.599 0.716-1.599 1.599v0 15.992h-0.533c-0.883 0-1.599 0.716-1.599 1.599v0 2.132c0 0.883 0.716 1.599 1.599 1.599v0zM30.385 4.837c0.294 0 0.533 0.239 0.533 0.533s-0.239 0.533-0.533 0.533v0c-0.294 0-0.533-0.239-0.533-0.533s0.239-0.533 0.533-0.533v0zM3.198 6.969c0-0.294 0.239-0.533 0.533-0.533h21.323c0.294 0 0.533 0.239 0.533 0.533v2.239l-1.066 1.013v-2.185c0-0.295-0.239-0.534-0.534-0.534h-19.19c-0.294 0-0.534 0.239-0.534 0.533v13.327c0 0.294 0.239 0.533 0.534 0.533h19.19c0.295 0 0.534-0.239 0.534-0.533v-9.675l1.066-1.010v12.284h-22.39v-15.992zM7.996 13.899c-0.001 0-0.003 0-0.005 0-0.883 0-1.599 0.716-1.599 1.599s0.716 1.599 1.599 1.599c0.432 0 0.825-0.172 1.112-0.45l-0 0 1.853 0.93c0.215 0.107 0.476 0.057 0.636-0.123l3.939-4.432 3.872 2.902c0.208 0.155 0.498 0.139 0.686-0.039l3.365-3.188v8.132h-18.124v-12.261h18.124v2.661l-3.772 3.572-3.904-2.927c-0.088-0.067-0.2-0.107-0.32-0.107-0.158 0-0.3 0.069-0.398 0.178l-0 0.001-3.993 4.493-1.493-0.747c0.011-0.064 0.017-0.128 0.020-0.193 0-0.883-0.716-1.599-1.599-1.599v0zM8.529 15.498c0 0.294-0.239 0.533-0.533 0.533s-0.533-0.239-0.533-0.533v0c0-0.294 0.239-0.533 0.533-0.533s0.533 0.239 0.533 0.533v0zM11.728 24.027h5.33v0.533c0 0.294-0.238 0.533-0.533 0.533h-4.265c-0.294 0-0.533-0.239-0.533-0.533v0-0.533zM1.067 24.561c0-0.294 0.238-0.533 0.533-0.533h9.062v0.533c0 0.883 0.716 1.599 1.599 1.599v0h4.265c0.883 0 1.599-0.716 1.599-1.599v0-0.533h9.062c0.294 0 0.533 0.239 0.533 0.533v2.132c0 0.294-0.239 0.533-0.533 0.533h-25.587c-0 0-0 0-0 0-0.294 0-0.533-0.239-0.533-0.533 0 0 0 0 0 0v0-2.132z">
            </path>
        </symbol>
        <symbol id="icon-envelope" viewBox="0 0 39 32">
            <path fill="currentColor"
                d="M35.697 2.446h-32.005c-2.036 0-3.693 1.657-3.693 3.693v22.15c0 2.036 1.657 3.693 3.693 3.693h32.005c2.036 0 3.693-1.657 3.693-3.693v-22.15c0-2.036-1.657-3.693-3.693-3.693zM35.697 4.907c0.167 0 0.327 0.034 0.473 0.096l-16.475 14.272-16.475-14.272c0.139-0.060 0.302-0.096 0.473-0.096h32.005zM35.697 29.519h-32.005c-0.68 0-1.231-0.551-1.231-1.231v0-20.685l16.426 14.23c0.215 0.188 0.498 0.302 0.808 0.302s0.593-0.114 0.809-0.303l-0.001 0.001 16.426-14.227v20.685c0 0.68-0.551 1.231-1.231 1.231v0z">
            </path>
        </symbol>
        <symbol id="icon-facebook" viewBox="0 0 32 32">
            <path fill="currentColor"
                d="M21.331 5.313h2.924v-5.089c-1.233-0.143-2.661-0.224-4.108-0.224-0.052 0-0.104 0-0.157 0l0.008-0c-4.213 0-7.1 2.65-7.1 7.521v4.481h-4.647v5.689h4.647v14.314h5.7v-14.312h4.46l0.709-5.689h-5.17v-3.922c0-1.643 0.443-2.768 2.735-2.768z">
            </path>
        </symbol>
        <symbol id="icon-instagram" viewBox="0 0 32 32">
            <path fill="currentColor"
                d="M31.973 9.409c-0.074-1.701-0.349-2.869-0.742-3.882-0.424-1.112-1.054-2.059-1.85-2.837l-0.001-0.001c-0.78-0.792-1.724-1.42-2.779-1.827l-0.054-0.018c-1.019-0.394-2.181-0.667-3.882-0.743-1.712-0.082-2.256-0.101-6.603-0.101-4.345 0-4.889 0.019-6.596 0.094-1.699 0.074-2.869 0.349-3.881 0.743-1.112 0.424-2.060 1.054-2.839 1.85l-0.001 0.001c-0.792 0.78-1.418 1.724-1.825 2.779l-0.018 0.054c-0.395 1.019-0.669 2.181-0.744 3.882-0.082 1.712-0.101 2.256-0.101 6.603 0 4.345 0.019 4.889 0.094 6.596 0.075 1.701 0.35 2.869 0.744 3.882 0.426 1.111 1.056 2.057 1.849 2.838l0.001 0.001c0.8 0.813 1.77 1.443 2.832 1.843 1.019 0.395 2.183 0.671 3.882 0.744 1.707 0.075 2.252 0.094 6.596 0.094 4.346 0 4.89-0.019 6.596-0.094 1.701-0.074 2.869-0.349 3.882-0.742 2.158-0.85 3.834-2.526 4.665-4.628l0.019-0.055c0.394-1.019 0.669-2.183 0.744-3.882 0.075-1.707 0.093-2.252 0.093-6.596s-0.006-4.889-0.080-6.596zM29.092 22.477c-0.070 1.563-0.333 2.407-0.55 2.97-0.552 1.4-1.64 2.487-3.004 3.025l-0.036 0.012c-0.56 0.219-1.411 0.482-2.968 0.55-1.688 0.075-2.194 0.094-6.465 0.094-4.269 0-4.783-0.019-6.465-0.094-1.563-0.069-2.407-0.331-2.97-0.55-0.721-0.269-1.334-0.676-1.836-1.193l-0.001-0.001c-0.517-0.503-0.924-1.117-1.184-1.803l-0.011-0.034c-0.218-0.563-0.48-1.413-0.549-2.97-0.075-1.688-0.094-2.195-0.094-6.465 0-4.271 0.019-4.785 0.094-6.465 0.069-1.563 0.331-2.407 0.549-2.97 0.269-0.722 0.678-1.337 1.199-1.837l0.002-0.002c0.504-0.517 1.119-0.924 1.806-1.182l0.034-0.011c0.56-0.219 1.411-0.48 2.968-0.55 1.688-0.074 2.195-0.093 6.465-0.093 4.276 0 4.783 0.019 6.465 0.093 1.563 0.069 2.407 0.331 2.97 0.55 0.693 0.256 1.325 0.662 1.837 1.194 0.531 0.52 0.938 1.144 1.195 1.84 0.218 0.56 0.48 1.411 0.549 2.968 0.075 1.688 0.094 2.194 0.094 6.465 0 4.269-0.019 4.769-0.094 6.459z">
            </path>
            <path fill="currentColor"
                d="M16.061 7.784c-4.54 0.002-8.219 3.682-8.22 8.222v0c0.091 4.471 3.737 8.061 8.222 8.061s8.131-3.59 8.222-8.053l0-0.009c-0.001-4.54-3.681-8.221-8.222-8.222h-0zM16.061 21.337c-2.945-0-5.333-2.388-5.333-5.334s2.388-5.334 5.334-5.334c0 0 0.001 0 0.001 0h-0c2.946 0 5.334 2.388 5.334 5.334s-2.388 5.334-5.334 5.334v0zM26.529 7.459c0 1.061-0.86 1.92-1.92 1.92s-1.92-0.86-1.92-1.92v0c0-1.061 0.86-1.92 1.92-1.92s1.92 0.86 1.92 1.92v0z">
            </path>
        </symbol>
        <symbol id="icon-linkedin" viewBox="0 0 32 32">
            <path fill="currentColor"
                d="M31.997 32.005h0.008v-11.739c0-5.742-1.235-10.165-7.948-10.165-3.228 0-5.393 1.77-6.278 3.45h-0.093v-2.914h-6.366v21.366h6.628v-10.579c0-2.786 0.528-5.481 3.978-5.481 3.399 0 3.45 3.18 3.45 5.658v10.403h6.62zM0.528 10.637h6.636v21.368h-6.636v-21.368zM3.844 0c-2.123 0-3.844 1.721-3.844 3.844v0c0 2.12 1.722 3.879 3.844 3.879 2.12 0 3.842-1.757 3.842-3.879s-1.72-3.842-3.842-3.844h-0z">
            </path>
        </symbol>
        <symbol id="icon-smartphone" viewBox="0 0 20 32">
            <path fill="currentColor"
                d="M17.010 0h-14.002c-1.654 0-3 1.346-3 3v26.004c0 1.654 1.346 3 3 3h14.002c1.654 0 3-1.346 3-3v-26.004c0-1.654-1.346-3-3-3zM3.008 2h14.002c0.552 0 1 0.448 1 1v0 21.003h-16.002v-21.003c0-0.552 0.448-1 1-1v0zM17.010 30.004h-14.002c-0.552 0-1-0.448-1-1v0-3h16.002v3c0 0.552-0.448 1-1 1v0z">
            </path>
            <path fill="currentColor"
                d="M4.716 27.482c0.18 0.163 0.293 0.399 0.293 0.66s-0.113 0.497-0.292 0.659l-0.001 0.001c-0.186 0.17-0.435 0.274-0.708 0.274s-0.522-0.104-0.709-0.275l0.001 0.001c-0.18-0.163-0.293-0.399-0.293-0.66s0.113-0.497 0.292-0.659l0.001-0.001c0.186-0.17 0.435-0.275 0.708-0.275s0.522 0.104 0.709 0.275l-0.001-0.001z">
            </path>
        </symbol>
        <symbol id="icon-twitter" viewBox="0 0 32 32">
            <path fill="currentColor"
                d="M32.005 6.079c-1.1 0.493-2.377 0.857-3.713 1.028l-0.068 0.007c1.36-0.817 2.382-2.078 2.874-3.58l0.013-0.046c-1.198 0.723-2.592 1.273-4.077 1.573l-0.084 0.014c-1.2-1.279-2.901-2.076-4.788-2.076-3.623 0-6.559 2.937-6.559 6.559 0 0.001 0 0.003 0 0.004v-0c0 0.52 0.043 1.021 0.152 1.496-5.455-0.266-10.281-2.88-13.524-6.862-0.564 0.949-0.899 2.092-0.903 3.313v0.001c0 2.272 1.171 4.287 2.914 5.452-1.091-0.030-2.108-0.325-2.995-0.823l0.033 0.017v0.072c0.003 3.165 2.237 5.808 5.214 6.441l0.043 0.008c-0.499 0.136-1.072 0.215-1.663 0.215-0.020 0-0.041-0-0.061-0l0.003 0c-0.419 0-0.843-0.024-1.242-0.112 0.85 2.599 3.261 4.509 6.13 4.57-2.215 1.746-5.047 2.8-8.124 2.8-0.004 0-0.008 0-0.012 0h0.001c-0.538 0-1.053-0.026-1.57-0.091 2.827 1.846 6.288 2.945 10.006 2.945 0.021 0 0.042-0 0.063-0h-0.003c12.074 0 18.675-10.001 18.675-18.671 0-0.288-0.010-0.57-0.024-0.848 1.299-0.936 2.391-2.065 3.259-3.357l0.030-0.047z">
            </path>
        </symbol>
        <symbol id="icon-menu-mobile" viewBox="0 0 32 32">
            <path fill="currentColor"
                d="M6.401 11.735v-2.134h19.203v2.134h-19.203zM6.401 17.069h19.203v-2.133h-19.203v2.133zM6.401 22.403h19.203v-2.134h-19.203v2.134z">
            </path>
        </symbol>
    </defs>
</svg>